<svg xmlns="http://www.w3.org/2000/svg" xmlns:svg="http://www.w3.org/2000/svg" id="svg3851" width="19.266" height="19.689" version="1.1" viewBox="0 0 5.097 5.209"><metadata id="metadata3848"/><g id="layer1" transform="translate(-0.03511714,-291.8183)"><g id="g3875" transform="matrix(-0.24830897,0,0,0.24830897,156.68418,164.82136)"><polygon transform="translate(288,498.8979)" style="fill:#464646" id="polygon3006" points="327 33.529 327 30.699 335.891 21.809 338.719 24.637 329.828 33.529"/><rect style="fill:#464646" id="rect3008" width="4" height="4" x="-813.746" y="74.533" transform="rotate(-134.9919)"/><path id="path3099" d="m 508.57142,476.82648 c -0.78265,0.78265 -4.14781,-1.95042 -5.24102,-1.77728 -1.0932,0.17315 -3.44909,3.81235 -4.43529,3.30986 -0.98619,-0.50249 0.57322,-4.54752 0.0707,-5.53371 -0.50249,-0.9862 -4.69158,-2.10221 -4.51844,-3.19541 0.17315,-1.09321 4.50208,-0.8601 5.28473,-1.64274 0.78265,-0.78265 0.54954,-5.11158 1.64274,-5.28473 1.09321,-0.17315 2.20922,4.01595 3.19541,4.51844 0.9862,0.50249 5.03122,-1.05693 5.53371,-0.0707 0.50249,0.98619 -3.13671,3.34208 -3.30985,4.43529 -0.17315,1.0932 2.55992,4.45836 1.77728,5.24101 z" transform="matrix(0.78402363,0,0,0.78402363,222.68069,148.68168)" style="fill:#464646;fill-opacity:1;stroke:#000;stroke-width:0;stroke-linejoin:round;stroke-miterlimit:4;stroke-dasharray:none;stroke-opacity:1"/></g><path style="opacity:1;vector-effect:none;fill:#000;fill-opacity:1;stroke-width:.04724703;stroke-linecap:butt;stroke-linejoin:miter;stroke-miterlimit:4;stroke-dasharray:none;stroke-dashoffset:0;stroke-opacity:1" id="path3885" d="m 4.2983645,294.67034 c 0,-0.0992 -0.02286,-0.30397 -0.050797,-0.45511 -0.074689,-0.40402 -0.042135,-0.47419 0.2996803,-0.64598 0.3800898,-0.19102 0.554318,-0.31545 0.554318,-0.3959 0,-0.0789 -0.067114,-0.10113 -0.5718837,-0.18963 -0.2322777,-0.0407 -0.418703,-0.0994 -0.4498154,-0.14167 -0.029223,-0.0397 -0.086566,-0.25421 -0.1274313,-0.47676 -0.1219597,-0.6642 -0.1922462,-0.67173 -0.5131461,-0.0549 -0.1074923,0.20662 -0.2279147,0.38813 -0.2676022,0.40336 -0.039688,0.0152 -0.2742592,0.002 -0.5212689,-0.029 -0.3812672,-0.0482 -0.4593616,-0.0465 -0.5170064,0.0112 -0.059036,0.059 -0.023918,0.11437 0.2689516,0.42379 0.1852665,0.19574 0.336849,0.39748 0.336849,0.44831 0,0.0508 -0.087085,0.27392 -0.1935216,0.49574 -0.2748015,0.5727 -0.2265283,0.61179 0.3883078,0.31447 0.2149422,-0.10395 0.419616,-0.18899 0.4548267,-0.18899 0.035213,0 0.2212631,0.14883 0.4134459,0.33073 0.406347,0.38461 0.4960937,0.41182 0.4960937,0.15042 z"/><path style="opacity:1;vector-effect:none;fill:#000;fill-opacity:1;stroke-width:.04724703;stroke-linecap:butt;stroke-linejoin:miter;stroke-miterlimit:4;stroke-dasharray:none;stroke-dashoffset:0;stroke-opacity:1" id="path3887" d="m 3.9676353,296.68109 v -0.34291 l -1.0992696,-1.09853 -1.0992723,-1.09852 -0.3413972,0.34369 -0.3413971,0.34369 1.098497,1.09775 1.0984971,1.09775 H 3.625463 3.9676353 Z"/><path style="opacity:1;vector-effect:none;fill:#000;fill-opacity:1;stroke-width:.04724703;stroke-linecap:butt;stroke-linejoin:miter;stroke-miterlimit:4;stroke-dasharray:none;stroke-dashoffset:0;stroke-opacity:1" id="path3889" d="m 1.0746309,294.27107 0.3418205,-0.34412 -0.3312371,-0.3287 -0.33123977,-0.3287 -0.3417015,0.3417 -0.3417014,0.3417 0.3311181,0.33112 0.3311181,0.33112 z"/></g></svg>